<?xml version="1.0" encoding="utf-8"?>
<!-- Generator: Adobe Illustrator 23.1.0, SVG Export Plug-In . SVG Version: 6.00 Build 0)  -->
<svg version="1.1" id="Layer_1" focusable="false" xmlns="http://www.w3.org/2000/svg" xmlns:xlink="http://www.w3.org/1999/xlink"
	 x="0px" y="0px" viewBox="0 0 512 512" style="enable-background:new 0 0 512 512;" xml:space="preserve">
<style type="text/css">
	.st0{fill:#FFFFFF;}
</style>
<path class="st0" d="M512,288.9c-0.5,17.4-15.2,31.1-32.7,31.1H424v16c0,21.9-4.9,42.6-13.6,61.1l60.2,60.2
	c12.5,12.5,12.5,32.8,0,45.3c-12.5,12.5-32.8,12.5-45.3,0l-54.7-54.7C345.9,468,314.4,480,280,480V236c0-6.6-5.4-12-12-12h-24
	c-6.6,0-12,5.4-12,12v244c-34.4,0-65.9-12-90.6-32.1l-54.7,54.7c-12.5,12.5-32.8,12.5-45.3,0c-12.5-12.5-12.5-32.8,0-45.3l60.2-60.2
	C92.9,378.6,88,357.9,88,336v-16H32.7C15.2,320,0.5,306.3,0,288.9C-0.5,270.8,14,256,32,256h56v-58.7l-46.6-46.6
	c-12.5-12.5-12.5-32.8,0-45.3c12.5-12.5,32.8-12.5,45.3,0l54.6,54.6h229.5l54.6-54.6c12.5-12.5,32.8-12.5,45.3,0
	c12.5,12.5,12.5,32.8,0,45.3L424,197.3V256h56C498,256,512.5,270.8,512,288.9z M257,0c-61.9,0-112,50.1-112,112h224
	C369,50.1,318.9,0,257,0z"/>
</svg>
